<?xml version="1.0" encoding="UTF-8"?> <svg xmlns="http://www.w3.org/2000/svg" xmlns:xlink="http://www.w3.org/1999/xlink" width="279.522" height="279.519" viewBox="0 0 279.522 279.519"><defs><linearGradient id="linear-gradient" x1="-1.655" y1="0.5" x2="0.983" y2="0.5" gradientUnits="objectBoundingBox"><stop offset="0" stop-color="#5cf8ff"></stop><stop offset="1" stop-color="#00ffb7"></stop></linearGradient><linearGradient id="linear-gradient-2" y1="0.5" x2="1" y2="0.5" gradientUnits="objectBoundingBox"><stop offset="0" stop-color="#f18b32"></stop><stop offset="1" stop-color="#d62e29"></stop></linearGradient><linearGradient id="linear-gradient-3" x1="0.007" x2="1.87" xlink:href="#linear-gradient"></linearGradient><linearGradient id="linear-gradient-5" x1="0" y1="0.5" x2="1" y2="0.5" xlink:href="#linear-gradient-2"></linearGradient></defs><g id="Group_284" data-name="Group 284" transform="translate(0)"><g id="Group_283" data-name="Group 283" transform="translate(0 0)"><rect id="Rectangle_1646" data-name="Rectangle 1646" width="32.617" height="86.896" transform="translate(62.386 150.932)" fill="url(#linear-gradient)"></rect><path id="Path_281" data-name="Path 281" d="M1020.725,165.12V153.332a64.571,64.571,0,0,0,19.043,0V165.12Z" transform="translate(-822.626 -10.225)" fill="url(#linear-gradient-2)"></path><rect id="Rectangle_1647" data-name="Rectangle 1647" width="46.185" height="59.753" transform="translate(8.1 164.507)" fill="url(#linear-gradient-3)"></rect><path id="Path_282" data-name="Path 282" d="M1039.768,207.287a9.522,9.522,0,0,1-19.043,0v-9.525h19.043Z" transform="translate(-822.626 54.615)" fill="url(#linear-gradient-2)"></path><path id="Path_283" data-name="Path 283" d="M1062.457,98.437a63.806,63.806,0,1,0,63.8,63.811A63.879,63.879,0,0,0,1062.457,98.437Zm0,122.141a58.333,58.333,0,1,1,58.334-58.329A58.4,58.4,0,0,1,1062.457,220.578Z" transform="translate(-854.838 -90.338)" fill="url(#linear-gradient-5)"></path><g id="Group_282" data-name="Group 282"><path id="Path_284" data-name="Path 284" d="M978.605,202.485a10.837,10.837,0,1,0-10.836-10.834A10.846,10.846,0,0,0,978.605,202.485Zm0-13.573a2.736,2.736,0,1,1-2.735,2.74A2.739,2.739,0,0,1,978.605,188.911Z" transform="translate(-899.91 29.876)" fill="#fff"></path><path id="Path_285" data-name="Path 285" d="M1210.085,273.484a15.178,15.178,0,0,0-12.77-23.445h-6.124l-8.524-20.155a71.984,71.984,0,1,0-83.7-10.194l-.02,0a61.533,61.533,0,0,0-27.922,16.384V112.153a17.032,17.032,0,0,0-17.012-17.009H957.188a17.03,17.03,0,0,0-17.011,17.009v245.5a17.03,17.03,0,0,0,17.011,17.009H1053.4a17.03,17.03,0,0,0,17.012-17.009v-19.1c8.261,4.788,21.576,8.964,43.015,8.964h16.746v9.525a17.621,17.621,0,0,0,35.243,0v-9.525h25.327a15.2,15.2,0,0,0,12.663-23.64,15.142,15.142,0,0,0,6.675-22.152,15.181,15.181,0,0,0,0-28.246ZM1182.4,250.039H1165.42V236.682a71.407,71.407,0,0,0,9.961-3.246Zm-44.128,0V238.251a64.57,64.57,0,0,0,19.043,0v11.788Zm-11.872,0a.788.788,0,0,1,0-1.577h3.773v1.577Zm-42.412-82.985a63.8,63.8,0,1,1,63.8,63.8A63.879,63.879,0,0,1,1083.992,167.054Zm-126.8-63.811h96.831a8.893,8.893,0,0,1,8.819,8.013,16.833,16.833,0,0,0-8.819-2.538H957.188a16.832,16.832,0,0,0-8.819,2.538A8.893,8.893,0,0,1,957.188,103.243Zm0,13.576h96.831a8.923,8.923,0,0,1,8.91,8.91V246.17a62.539,62.539,0,0,0-4.257,7.759h-15.393v-11.9a4.054,4.054,0,0,0-4.048-4.051H998.514a4.054,4.054,0,0,0-4.051,4.051v9.525H948.278V125.729A8.923,8.923,0,0,1,957.188,116.819Zm77.992,216.153h-32.616v-86.9h32.616Zm-86.9-73.322h46.185V319.4H948.278ZM1053.4,366.565H957.188a8.9,8.9,0,0,1-8.819-8.005,16.832,16.832,0,0,0,8.819,2.538H1053.4a16.832,16.832,0,0,0,8.819-2.538A8.894,8.894,0,0,1,1053.4,366.565Zm0-13.568H957.188a8.923,8.923,0,0,1-8.91-8.91V327.5h46.185v9.518a4.054,4.054,0,0,0,4.051,4.051h40.718a4.054,4.054,0,0,0,4.048-4.051V327.5h15.393a25.192,25.192,0,0,0,3.645,4.8v11.785A8.925,8.925,0,0,1,1053.4,353Zm103.914,4.051a9.521,9.521,0,0,1-19.043,0v-9.525h19.043Zm47.159-62.316H1170a4.049,4.049,0,1,0,0,8.1h27.314a7.122,7.122,0,0,1,0,14.245h-27.333a4.051,4.051,0,0,0,0,8.1h20.765a7.122,7.122,0,0,1,0,14.245h-77.316c-41.977,0-48.165-16.65-48.324-17.112-.022-.076-.081-.13-.108-.2a3.868,3.868,0,0,0-.379-.721,4.133,4.133,0,0,0-.418-.617,4.177,4.177,0,0,0-.573-.482,4.053,4.053,0,0,0-.657-.443,3.948,3.948,0,0,0-.637-.212,3.74,3.74,0,0,0-.888-.18c-.079,0-.145-.047-.226-.047h-17.941V262.031h17.941a3.934,3.934,0,0,0,1.99-.6,3.82,3.82,0,0,0,.415-.28,4.011,4.011,0,0,0,1.333-1.628l.015-.02a54.206,54.206,0,0,1,36.055-31.977,42.232,42.232,0,0,1,6.289-1.094,71.586,71.586,0,0,0,22.86,10.248v3.679H1126.4a8.888,8.888,0,0,0,0,17.776h70.911a7.124,7.124,0,0,1,0,14.247H1170a4.049,4.049,0,1,0,0,8.1h34.476a7.124,7.124,0,0,1,0,14.247Z" transform="translate(-940.177 -95.144)" fill="#fff"></path><path id="Path_286" data-name="Path 286" d="M1059.213,217.329A58.333,58.333,0,1,0,1000.876,159,58.4,58.4,0,0,0,1059.213,217.329Zm0-108.565A50.232,50.232,0,1,1,1008.977,159,50.291,50.291,0,0,1,1059.213,108.764Z" transform="translate(-851.594 -87.09)" fill="#fff"></path><path id="Path_287" data-name="Path 287" d="M1027,171.547a44.812,44.812,0,0,0,44.766-44.761,4.049,4.049,0,1,0-8.1,0A36.707,36.707,0,0,1,1027,163.446a4.051,4.051,0,1,0,0,8.1Z" transform="translate(-819.381 -54.877)" fill="#fff"></path></g></g></g></svg> 