<?xml version="1.0" encoding="UTF-8"?> <svg xmlns="http://www.w3.org/2000/svg" xmlns:xlink="http://www.w3.org/1999/xlink" width="230.322" height="285.834" viewBox="0 0 230.322 285.834"><defs><linearGradient id="linear-gradient" x1="-1.575" y1="0.5" x2="2.587" y2="0.5" gradientUnits="objectBoundingBox"><stop offset="0" stop-color="#93a1fe"></stop><stop offset="1" stop-color="#00ffb6"></stop></linearGradient><linearGradient id="linear-gradient-2" y1="0.573" x2="1" y2="0.59" gradientUnits="objectBoundingBox"><stop offset="0" stop-color="#f18b32"></stop><stop offset="1" stop-color="#da432a"></stop></linearGradient></defs><g id="Group_304" data-name="Group 304" transform="translate(-119.232 -70)"><path id="Path_359" data-name="Path 359" d="M202.731,266.606a9.72,9.72,0,0,1-9.145-6.516,45.861,45.861,0,0,0,18.291,0A9.72,9.72,0,0,1,202.731,266.606Z" transform="translate(31.662 80.945)" fill="url(#linear-gradient)"></path><path id="Path_361" data-name="Path 361" d="M193.18,153.682h-9.738a9.738,9.738,0,1,1,9.738-9.74Z" transform="translate(23.196 27.341)" fill="url(#linear-gradient-2)"></path><rect id="Rectangle_1649" data-name="Rectangle 1649" width="19.469" height="74.981" transform="translate(224.66 189.306)" fill="url(#linear-gradient-2)"></rect><path id="Path_362" data-name="Path 362" d="M271.544,237.278a25.978,25.978,0,0,0-10.069,16.247H241.65V178.544h9.736a18.021,18.021,0,1,0-18.02-18.022v9.74H213.9v-9.74a18.021,18.021,0,1,0-18.022,18.022h9.738v74.981H185.8a25.626,25.626,0,0,0-9.961-16.156,79.126,79.126,0,1,1,95.709-.091Z" transform="translate(10.763 10.762)" fill="url(#linear-gradient-2)"></path><path id="Path_363" data-name="Path 363" d="M212.638,153.682v-9.74a9.736,9.736,0,1,1,9.736,9.74Z" transform="translate(39.775 27.341)" fill="url(#linear-gradient-2)"></path><g id="Group_303" data-name="Group 303" transform="translate(119.232 70)"><path id="Path_364" data-name="Path 364" d="M284.377,111.725a86.67,86.67,0,0,0-68.27-21.7c-39.842,4.429-72.137,36.537-76.794,76.346A86.906,86.906,0,0,0,173.3,246.44a17.188,17.188,0,0,1,7.028,13.7V287.9a45.837,45.837,0,0,0,27.8,42.089,17.979,17.979,0,0,0,35.948,0,45.837,45.837,0,0,0,27.8-42.089V260.142a17.392,17.392,0,0,1,7.161-13.8,87.313,87.313,0,0,0,5.337-134.618ZM226.1,339.266a9.72,9.72,0,0,1-9.145-6.516,45.861,45.861,0,0,0,18.291,0A9.72,9.72,0,0,1,226.1,339.266ZM263.6,287.9a37.492,37.492,0,1,1-74.984,0V264.284H263.6ZM208.088,172.738h-9.738a9.738,9.738,0,1,1,9.738-9.74ZM235.84,256H216.372V181.02H235.84Zm38.178-16.247A25.978,25.978,0,0,0,263.949,256H244.124V181.02h9.736A18.021,18.021,0,1,0,235.84,163v9.74H216.372V163a18.021,18.021,0,1,0-18.022,18.022h9.738V256H188.27a25.626,25.626,0,0,0-9.961-16.156,79.126,79.126,0,1,1,95.709-.091Zm-29.894-67.017V163a9.736,9.736,0,1,1,9.736,9.74Z" transform="translate(-110.943 -61.714)" fill="#fff"></path><path id="Path_365" data-name="Path 365" d="M201.237,92.162a4.143,4.143,0,0,0,4.142-4.142V74.142a4.142,4.142,0,0,0-8.284,0V88.02A4.143,4.143,0,0,0,201.237,92.162Z" transform="translate(-86.076 -70)" fill="#fff"></path><path id="Path_366" data-name="Path 366" d="M137.252,147.864H123.373a4.141,4.141,0,0,0,0,8.283h13.879a4.141,4.141,0,0,0,0-8.283Z" transform="translate(-119.232 -36.843)" fill="#fff"></path><path id="Path_367" data-name="Path 367" d="M283.243,147.864H269.369a4.141,4.141,0,0,0,0,8.283h13.875a4.141,4.141,0,1,0,0-8.283Z" transform="translate(-57.063 -36.843)" fill="#fff"></path><path id="Path_368" data-name="Path 368" d="M153.063,109.688a4.141,4.141,0,0,0,5.857-5.856l-9.814-9.814a4.141,4.141,0,0,0-5.857,5.856Z" transform="translate(-109.521 -60.289)" fill="#fff"></path><path id="Path_369" data-name="Path 369" d="M252.342,197.252a4.142,4.142,0,0,0-5.857,5.857l9.814,9.814a4.142,4.142,0,0,0,5.857-5.857Z" transform="translate(-65.561 -16.329)" fill="#fff"></path><path id="Path_370" data-name="Path 370" d="M153.063,197.252l-9.814,9.814a4.142,4.142,0,1,0,5.857,5.857l9.814-9.814a4.142,4.142,0,0,0-5.857-5.857Z" transform="translate(-109.521 -16.329)" fill="#fff"></path><path id="Path_371" data-name="Path 371" d="M249.413,110.9a4.131,4.131,0,0,0,2.929-1.213l9.814-9.814a4.141,4.141,0,0,0-5.857-5.856l-9.814,9.814a4.141,4.141,0,0,0,2.929,7.069Z" transform="translate(-65.561 -60.289)" fill="#fff"></path><path id="Path_372" data-name="Path 372" d="M177.752,242.317a4.145,4.145,0,0,0,5.022,3.016l55.512-13.879a4.142,4.142,0,0,0-2.006-8.037L180.768,237.3A4.144,4.144,0,0,0,177.752,242.317Z" transform="translate(-94.365 -4.723)" fill="#fff"></path><path id="Path_373" data-name="Path 373" d="M218.253,235.581,190.5,242.522a4.143,4.143,0,0,0,2.012,8.037l27.757-6.941a4.143,4.143,0,1,0-2.013-8.037Z" transform="translate(-90.221 0.459)" fill="#fff"></path><path id="Path_374" data-name="Path 374" d="M190.5,223.058a4.143,4.143,0,0,0,2.012,8.037l27.757-6.941a4.143,4.143,0,1,0-2.013-8.037Z" transform="translate(-90.221 -7.833)" fill="#fff"></path></g></g></svg> 