<?xml version="1.0" encoding="UTF-8"?> <svg xmlns="http://www.w3.org/2000/svg" xmlns:xlink="http://www.w3.org/1999/xlink" width="265.463" height="265.463" viewBox="0 0 265.463 265.463"><defs><linearGradient id="linear-gradient" x1="-1.593" y1="0.327" x2="0.995" y2="0.541" gradientUnits="objectBoundingBox"><stop offset="0" stop-color="#f18b32"></stop><stop offset="1" stop-color="#d62e29"></stop></linearGradient><linearGradient id="linear-gradient-2" x1="-0.145" y1="0.44" x2="2.164" y2="0.654" xlink:href="#linear-gradient"></linearGradient><linearGradient id="linear-gradient-3" x1="0.156" y1="0.506" x2="1.086" y2="0.49" gradientUnits="objectBoundingBox"><stop offset="0" stop-color="#5cf8ff"></stop><stop offset="1" stop-color="#00ffb7"></stop></linearGradient></defs><g id="Group_281" data-name="Group 281" transform="translate(0)"><g id="Group_280" data-name="Group 280" transform="translate(0 0)"><path id="Path_278" data-name="Path 278" d="M1056.1,107.473V85.543h27.635l-8.9,13.351a3.83,3.83,0,0,0,0,4.268l8.9,13.352H1056.1Z" transform="translate(-880.859 -64.961)" fill="url(#linear-gradient)"></path><rect id="Rectangle_1645" data-name="Rectangle 1645" width="30.97" height="30.973" transform="translate(136.581 7.693)" fill="url(#linear-gradient-2)"></rect><path id="Path_279" data-name="Path 279" d="M1031.065,138.675l28.85,67.32-2.851,4.988-9.676-19.351a3.912,3.912,0,0,0-3.709-2.115,3.846,3.846,0,0,0-3.377,2.621l-9.239,27.722-9.243-27.722a3.846,3.846,0,0,0-3.378-2.621,3.907,3.907,0,0,0-3.708,2.119l-9.676,19.347L1002.213,206Z" transform="translate(-898.33 -47.735)" fill="url(#linear-gradient-3)"></path><path id="Path_280" data-name="Path 280" d="M1188.95,330.19,1137.4,201.3a3.844,3.844,0,0,0-7.14,0l-23.219,58.044-46.7-108.957V116.359h30.97V125.4a3.848,3.848,0,0,0,3.847,3.847h38.67a3.846,3.846,0,0,0,3.2-5.98l-11.468-17.2,11.468-17.2a3.846,3.846,0,0,0-3.2-5.98h-34.823V73.847A3.848,3.848,0,0,0,1095.162,70H1056.5a3.848,3.848,0,0,0-3.847,3.847v76.545l-46.7,108.957L982.735,201.3c-1.165-2.921-5.974-2.921-7.14,0L924.039,330.19a3.844,3.844,0,0,0,3.57,5.273h257.77a3.842,3.842,0,0,0,3.57-5.273Zm-89.941-217.677V90.582h27.635l-8.9,13.351a3.83,3.83,0,0,0,0,4.268l8.9,13.352h-27.635Zm-38.664-34.819h30.97v30.973h-30.97ZM1056.5,160.94l28.85,67.32-2.851,4.988-9.676-19.351a3.913,3.913,0,0,0-3.709-2.115,3.846,3.846,0,0,0-3.377,2.621l-9.239,27.722-9.243-27.722a3.846,3.846,0,0,0-3.378-2.621,3.908,3.908,0,0,0-3.708,2.119l-9.676,19.347-2.846-4.987Zm-77.334,52.147,22.506,56.258L976.63,327.77H933.29ZM985,327.77l38.847-90.645,3.532,6.18a4.156,4.156,0,0,0,3.449,1.939,3.839,3.839,0,0,0,3.329-2.128l8.74-17.468,9.953,29.856a2.963,2.963,0,0,0,.144.275,3.466,3.466,0,0,0,.234.45,4.611,4.611,0,0,0,.873,1.028,3.8,3.8,0,0,0,1.1.63c.031.012.051.037.082.048l.017,0a3.775,3.775,0,0,0,2.393,0l.017,0c.032-.011.053-.037.083-.048a3.792,3.792,0,0,0,1.1-.63,3.629,3.629,0,0,0,.323-.312,3.744,3.744,0,0,0,.55-.715,3.632,3.632,0,0,0,.236-.45c.041-.1.11-.173.145-.275l9.953-29.86,8.739,17.476a3.842,3.842,0,0,0,3.329,2.124,4.2,4.2,0,0,0,3.451-1.939l3.531-6.18,14.478,33.781,0,.009L1128,327.77Zm151.365,0-25.04-58.425,22.505-56.255L1179.7,327.77Z" transform="translate(-923.764 -70)" fill="#fff"></path></g></g></svg> 